<svg id="Layer_1" data-name="Layer 1" xmlns="http://www.w3.org/2000/svg" viewBox="0 0 114.97 114.97"><title>icon-crunchbase-black</title><path d="M189.26,220.67l0,0.23c-0.8,7.78-6,13-13,13-11.29,0-15.3-9.64-15.3-17.9s4-17.9,15.3-17.9a12.23,12.23,0,0,1,12.41,9.8l0,0.2h4.43l0-.29c-1.12-9.33-9.52-13.58-16.85-13.58-13.64,0-19.74,10.93-19.74,21.76s6.1,21.76,19.74,21.76c9.62,0,16.3-6.45,17.43-16.82l0-.28h-4.45Z" transform="translate(-137.2 -158.94)"/><path d="M228.78,214.54a11,11,0,0,0,4.33-8.8c0-7.31-5.3-11.5-14.54-11.5H199.9v43.53h18.66c6.2,0,10.7-1.64,13.38-4.88a12.48,12.48,0,0,0,2.69-8.2A11.13,11.13,0,0,0,228.78,214.54ZM207,200.77h11.57c6.68,0,7.45,3.39,7.45,5.93,0,3.26-2.79,5.2-7.45,5.2H207V200.77Zm11.57,17.65c6,0,9,2.07,9,6.16a6.07,6.07,0,0,1-1.6,4.55c-1.43,1.42-4,2.15-7.37,2.11H207V218.43h11.57Z" transform="translate(-137.2 -158.94)"/><path d="M194.69,273.91a57.49,57.49,0,1,1,57.49-57.49A57.55,57.55,0,0,1,194.69,273.91Zm0-109a51.49,51.49,0,1,0,51.49,51.49A51.55,51.55,0,0,0,194.69,164.94Z" transform="translate(-137.2 -158.94)"/></svg>